<?xml version="1.0" standalone="no"?><!DOCTYPE svg PUBLIC "-//W3C//DTD SVG 1.1//EN" "http://www.w3.org/Graphics/SVG/1.1/DTD/svg11.dtd"><svg t="1573989029794" class="icon" viewBox="0 0 1024 1024" version="1.1" xmlns="http://www.w3.org/2000/svg" p-id="3118" width="22" height="22" xmlns:xlink="http://www.w3.org/1999/xlink"><defs><style type="text/css"></style></defs><path d="M794.552097 543.788522a231.245913 231.245913 0 0 1 111.972174-194.649044 243.578435 243.578435 0 0 0-189.70713-101.331478c-80.806957-7.969391-157.696 46.925913-198.700522 46.925913s-104.225391-45.679304-171.230609-44.521739A253.996522 253.996522 0 0 0 132.291228 378.434783c-91.314087 156.449391-23.329391 387.962435 65.847652 514.938434 43.586783 62.330435 95.49913 131.873391 163.750957 129.380174 65.714087-2.626783 90.557217-41.939478 169.984-41.939478s101.687652 41.939478 171.230608 40.559304c70.656-1.380174 115.489391-63.265391 158.809044-125.506782a555.008 555.008 0 0 0 71.813565-145.363478 226.482087 226.482087 0 0 1-139.174957-206.714435zM663.969837 163.84A222.608696 222.608696 0 0 0 717.930184 0.623304a234.139826 234.139826 0 0 0-152.754087 77.378783 212.457739 212.457739 0 0 0-55.073391 158.052174 193.090783 193.090783 0 0 0 153.867131-72.258783z m0 0" fill="#333333" p-id="3119"></path></svg>